<svg xmlns="http://www.w3.org/2000/svg" viewBox="0 0 960 620" font-family="system-ui,-apple-system,sans-serif">
  <defs>
    <linearGradient id="a" x1="0" y1="0" x2="1" y2="0"><stop offset="0%" stop-color="#6366f1"/><stop offset="100%" stop-color="#818cf8"/></linearGradient>
    <linearGradient id="b" x1="0" y1="0" x2="1" y2="0"><stop offset="0%" stop-color="#f97316"/><stop offset="100%" stop-color="#fb923c"/></linearGradient>
    <linearGradient id="c" x1="0" y1="0" x2="1" y2="0"><stop offset="0%" stop-color="#10b981"/><stop offset="100%" stop-color="#34d399"/></linearGradient>
    <linearGradient id="d" x1="0" y1="0" x2="1" y2="0"><stop offset="0%" stop-color="#ef4444"/><stop offset="100%" stop-color="#f87171"/></linearGradient>
    <filter id="sh"><feDropShadow dx="0" dy="2" stdDeviation="4" flood-opacity=".12"/></filter>
    <marker id="ar" viewBox="0 0 10 10" refX="9" refY="5" markerWidth="7" markerHeight="7" orient="auto"><path d="M0 0L10 5L0 10z" fill="#475569"/></marker>
  </defs>
  <rect width="960" height="620" fill="#0f172a" rx="16"/>
  <text x="480" y="36" text-anchor="middle" fill="#e2e8f0" font-size="20" font-weight="700">sAgent 郑州西亚斯学院落地流程</text>

  <!-- Phase 1: 部署 -->
  <rect x="40" y="56" width="200" height="160" rx="12" fill="#1e293b" filter="url(#sh)"/>
  <rect x="40" y="56" width="200" height="6" rx="3" fill="url(#a)"/>
  <text x="140" y="84" text-anchor="middle" fill="#a5b4fc" font-size="14" font-weight="700">① 环境部署</text>
  <text x="60" y="106" fill="#94a3b8" font-size="11">• 校内服务器部署</text>
  <text x="60" y="124" fill="#94a3b8" font-size="11">• Docker 沙箱配置</text>
  <text x="60" y="142" fill="#94a3b8" font-size="11">• 讯飞星火 API 接入</text>
  <text x="60" y="160" fill="#94a3b8" font-size="11">• 数据库初始化</text>
  <text x="60" y="178" fill="#94a3b8" font-size="11">• 认证系统配置</text>
  <text x="60" y="196" fill="#6366f1" font-size="10" font-weight="600">1 周</text>

  <line x1="240" y1="136" x2="280" y2="136" stroke="#475569" stroke-width="2" marker-end="url(#ar)"/>

  <!-- Phase 2: 试用 -->
  <rect x="290" y="56" width="200" height="160" rx="12" fill="#1e293b" filter="url(#sh)"/>
  <rect x="290" y="56" width="200" height="6" rx="3" fill="url(#b)"/>
  <text x="390" y="84" text-anchor="middle" fill="#fdba74" font-size="14" font-weight="700">② 小范围试用</text>
  <text x="310" y="106" fill="#94a3b8" font-size="11">• 30 名学生内测</text>
  <text x="310" y="124" fill="#94a3b8" font-size="11">• 计算机导论课程</text>
  <text x="310" y="142" fill="#94a3b8" font-size="11">• Vibe Coding 模块</text>
  <text x="310" y="160" fill="#94a3b8" font-size="11">• AI 辅导对话</text>
  <text x="310" y="178" fill="#94a3b8" font-size="11">• 行为数据采集</text>
  <text x="310" y="196" fill="#f97316" font-size="10" font-weight="600">4 周</text>

  <line x1="490" y1="136" x2="530" y2="136" stroke="#475569" stroke-width="2" marker-end="url(#ar)"/>

  <!-- Phase 3: 评估 -->
  <rect x="540" y="56" width="200" height="160" rx="12" fill="#1e293b" filter="url(#sh)"/>
  <rect x="540" y="56" width="200" height="6" rx="3" fill="url(#c)"/>
  <text x="640" y="84" text-anchor="middle" fill="#6ee7b7" font-size="14" font-weight="700">③ 效果评估</text>
  <text x="560" y="106" fill="#94a3b8" font-size="11">• 学习完成率统计</text>
  <text x="560" y="124" fill="#94a3b8" font-size="11">• 代码通过率分析</text>
  <text x="560" y="142" fill="#94a3b8" font-size="11">• AI 辅导满意度</text>
  <text x="560" y="160" fill="#94a3b8" font-size="11">• 进化引擎数据</text>
  <text x="560" y="178" fill="#94a3b8" font-size="11">• 教师反馈收集</text>
  <text x="560" y="196" fill="#10b981" font-size="10" font-weight="600">2 周</text>

  <line x1="740" y1="136" x2="780" y2="136" stroke="#475569" stroke-width="2" marker-end="url(#ar)"/>

  <!-- Phase 4: 迭代 -->
  <rect x="790" y="56" width="130" height="160" rx="12" fill="#1e293b" filter="url(#sh)"/>
  <rect x="790" y="56" width="130" height="6" rx="3" fill="url(#d)"/>
  <text x="855" y="84" text-anchor="middle" fill="#fca5a5" font-size="14" font-weight="700">④ 迭代</text>
  <text x="810" y="106" fill="#94a3b8" font-size="11">• 策略优化</text>
  <text x="810" y="124" fill="#94a3b8" font-size="11">• 内容补充</text>
  <text x="810" y="142" fill="#94a3b8" font-size="11">• 扩大范围</text>
  <text x="810" y="160" fill="#94a3b8" font-size="11">• 功能迭代</text>
  <text x="810" y="178" fill="#94a3b8" font-size="11">• 持续运营</text>
  <text x="810" y="196" fill="#ef4444" font-size="10" font-weight="600">持续</text>

  <!-- 底部：落地场景 -->
  <text x="480" y="250" text-anchor="middle" fill="#94a3b8" font-size="13" font-weight="600">落地场景：郑州西亚斯学院 — 计算机导论课程 · 30 名学生内测</text>

  <!-- 三列场景卡 -->
  <rect x="40" y="270" width="280" height="140" rx="12" fill="#1e293b" filter="url(#sh)"/>
  <rect x="40" y="270" width="280" height="6" rx="3" fill="url(#a)"/>
  <text x="180" y="298" text-anchor="middle" fill="#a5b4fc" font-size="13" font-weight="700">🖥️ 课堂辅助教学</text>
  <text x="60" y="320" fill="#94a3b8" font-size="11">• 教师布置 Vibe Coding 练习</text>
  <text x="60" y="338" fill="#94a3b8" font-size="11">• 学生在线编码 + AI 实时辅导</text>
  <text x="60" y="356" fill="#94a3b8" font-size="11">• 自动评测 + 代码质量报告</text>
  <text x="60" y="374" fill="#94a3b8" font-size="11">• 教师查看全班学习仪表盘</text>
  <text x="60" y="394" fill="#6366f1" font-size="10">实时反馈 · 替代传统作业批改</text>

  <rect x="340" y="270" width="280" height="140" rx="12" fill="#1e293b" filter="url(#sh)"/>
  <rect x="340" y="270" width="280" height="6" rx="3" fill="url(#b)"/>
  <text x="480" y="298" text-anchor="middle" fill="#fdba74" font-size="13" font-weight="700">📚 自主学习路径</text>
  <text x="360" y="320" fill="#94a3b8" font-size="11">• 入学能力诊断（IRT 自适应）</text>
  <text x="360" y="338" fill="#94a3b8" font-size="11">• 生成个性化学习路径</text>
  <text x="360" y="356" fill="#94a3b8" font-size="11">• 路径动态调整（BKT + RL）</text>
  <text x="360" y="374" fill="#94a3b8" font-size="11">• 知识图谱可视化</text>
  <text x="360" y="394" fill="#f97316" font-size="10">千人千面 · 零基础到全栈</text>

  <rect x="640" y="270" width="280" height="140" rx="12" fill="#1e293b" filter="url(#sh)"/>
  <rect x="640" y="270" width="280" height="6" rx="3" fill="url(#c)"/>
  <text x="780" y="298" text-anchor="middle" fill="#6ee7b7" font-size="13" font-weight="700">🎯 面试/就业准备</text>
  <text x="660" y="320" fill="#94a3b8" font-size="11">• Interview Agent 模拟面试</text>
  <text x="660" y="338" fill="#94a3b8" font-size="11">• 算法训练 + 代码评审</text>
  <text x="660" y="356" fill="#94a3b8" font-size="11">• 项目实战（全栈 + AI）</text>
  <text x="660" y="374" fill="#94a3b8" font-size="11">• 能力雷达图 + 就业报告</text>
  <text x="660" y="394" fill="#10b981" font-size="10">就业导向 · 从学到用</text>

  <!-- 底部数据条 -->
  <rect x="40" y="430" width="880" height="170" rx="12" fill="#1e293b" filter="url(#sh)"/>
  <text x="480" y="458" text-anchor="middle" fill="#e2e8f0" font-size="14" font-weight="700">郑州西亚斯学院落地数据（内测阶段）</text>

  <!-- 数据指标 -->
  <rect x="60" y="472" width="160" height="60" rx="8" fill="#6366f1" opacity=".15" stroke="#6366f1" stroke-width="1"/>
  <text x="140" y="498" text-anchor="middle" fill="#a5b4fc" font-size="22" font-weight="800">30+</text>
  <text x="140" y="520" text-anchor="middle" fill="#94a3b8" font-size="10">内测学生</text>

  <rect x="240" y="472" width="160" height="60" rx="8" fill="#f97316" opacity=".15" stroke="#f97316" stroke-width="1"/>
  <text x="320" y="498" text-anchor="middle" fill="#fdba74" font-size="22" font-weight="800">76+</text>
  <text x="320" y="520" text-anchor="middle" fill="#94a3b8" font-size="10">知识点详情页</text>

  <rect x="420" y="472" width="160" height="60" rx="8" fill="#10b981" opacity=".15" stroke="#10b981" stroke-width="1"/>
  <text x="500" y="498" text-anchor="middle" fill="#6ee7b7" font-size="22" font-weight="800">16</text>
  <text x="500" y="520" text-anchor="middle" fill="#94a3b8" font-size="10">业务模块</text>

  <rect x="600" y="472" width="160" height="60" rx="8" fill="#ef4444" opacity=".15" stroke="#ef4444" stroke-width="1"/>
  <text x="680" y="498" text-anchor="middle" fill="#fca5a5" font-size="22" font-weight="800">10</text>
  <text x="680" y="520" text-anchor="middle" fill="#94a3b8" font-size="10">智能体 Agent</text>

  <rect x="780" y="472" width="120" height="60" rx="8" fill="#8b5cf6" opacity=".15" stroke="#8b5cf6" stroke-width="1"/>
  <text x="840" y="498" text-anchor="middle" fill="#c4b5fd" font-size="22" font-weight="800">21</text>
  <text x="840" y="520" text-anchor="middle" fill="#94a3b8" font-size="10">数据实体</text>

  <!-- 时间线 -->
  <text x="140" y="568" text-anchor="middle" fill="#64748b" font-size="10">2026.06 部署</text>
  <text x="320" y="568" text-anchor="middle" fill="#64748b" font-size="10">2026.06 内测启动</text>
  <text x="500" y="568" text-anchor="middle" fill="#64748b" font-size="10">2026.07 效果评估</text>
  <text x="680" y="568" text-anchor="middle" fill="#64748b" font-size="10">2026.08 迭代优化</text>
  <text x="840" y="568" text-anchor="middle" fill="#64748b" font-size="10">2026.09 扩大范围</text>
</svg>
